<?xml version="1.0" encoding="UTF-8"?>
<!-- Generator: Adobe Illustrator 15.0.2, SVG Export Plug-In . SVG Version: 6.00 Build 0)  -->
<!DOCTYPE svg PUBLIC "-//W3C//DTD SVG 1.1//EN" "http://www.w3.org/Graphics/SVG/1.1/DTD/svg11.dtd">
<svg xmlns="http://www.w3.org/2000/svg" xmlns:xlink="http://www.w3.org/1999/xlink" version="1.1" id="Layer_1" x="0px" y="0px" width="512px" height="525.182px" viewBox="0.002 0 512 525.182" enable-background="new 0.002 0 512 525.182" xml:space="preserve">
<g>
	<path d="M0.713,258.558c4.067,27.971,24.853,50.508,55.603,60.279c16.267,5.174,43.882,12.065,66.339,17.42   c-41.182,58.945-49.281,119.857-33.963,154.73c9.546,21.734,27.609,34.194,49.553,34.194c42.407,0,53.484-35.505,61.572-61.431   c1.197-3.853,2.435-7.817,3.79-11.851c7.513-22.345,45.187-62.64,100.165-93.311c41.143-22.943,80.567-54.325,82.229-55.647   c5.501-4.395,8.698-11.048,8.698-18.074V61.996c0-7.441-3.581-14.423-9.613-18.772C351.963,19.365,235.141,0,176.449,0   c-30.518,0-42.532,4.801-48.932,8.405c-26.344,14.897-61.386,99.227-87.018,170.184C10.97,200.968-3.473,229.777,0.713,258.558z    M72.847,212.32c4.05-2.759,7.128-6.743,8.789-11.364c22.927-64.19,55.783-139.796,69.011-152.35   c1.949-0.63,8.783-2.335,25.802-2.335c54.84,0,139.975,16.346,171.978,29.537v197.695c-13.363,10.099-40.238,29.642-67.192,44.678   c-59.982,33.449-108.807,81.269-121.487,118.977c-1.463,4.36-2.807,8.653-4.101,12.811c-9.031,28.942-11.308,28.942-17.402,28.942   c-1.615,0-4.321,0-7.19-6.53c-9.941-22.638-1.084-79.381,49.723-134.701c5.598-6.089,7.518-14.686,5.032-22.57   c-2.474-7.874-8.964-13.85-17.019-15.657c-0.694-0.147-70.175-15.714-98.45-24.706c-13.472-4.259-22.385-12.811-23.836-22.828   C44.679,239.343,54.276,224.919,72.847,212.32z" fill="#FF4500"/>
	<path d="M474.407,325.129c20.764,0,37.596-16.832,37.596-37.595V60.042c0-20.764-16.832-37.596-37.596-37.596   c-20.763,0-37.595,16.832-37.595,37.596v227.492C436.812,308.297,453.644,325.129,474.407,325.129z" fill="#FF4500"/>
</g>
</svg>
